<svg id="Layer_1" data-name="Layer 1" xmlns="http://www.w3.org/2000/svg" viewBox="0 0 288.43 57.41"><defs><style>.cls-1{fill:#fff;stroke:#fff;stroke-miterlimit:10;stroke-width:0.25px;}</style></defs><title>logo</title><path class="cls-1" d="M122.05,54.81v2.33c-2.48-.3-4.8-.44-7.07-.87a36.31,36.31,0,0,1-17.25-8.61,3.92,3.92,0,0,0-2.31-.89q-18.83-.08-37.65,0a4.05,4.05,0,0,1-3.08-1.13c-1.07-1-2.25-1.93-3.73-3.2H92.82L89,36H68.84c-8,0-15.94,0-23.9,0a4.24,4.24,0,0,1-3.23-1.17c-1-1-2.18-1.87-3.58-3.07H87.34c-.39-1.93-.69-3.71-1.15-5.43-.08-.3-.9-.56-1.38-.56-4.37,0-8.75,0-13.12,0-12.92,0-25.83,0-38.75,0a5,5,0,0,1-3.76-1.41c-1-.92-2.05-1.74-3.42-2.88H85.69c.17-2.27.33-4.32.5-6.54H84.45q-32.18,0-64.36,0a5,5,0,0,1-3.9-1.43c-.91-.92-2-1.68-3.34-2.82H15q35.22,0,70.45,0c1.38,0,2-.34,2.41-1.7C88.27,7.47,89,6,89.7,4.22H87.63q-40.3,0-80.61,0A4.69,4.69,0,0,1,3.51,3C2.48,2,1.34,1.13,0,0H97.52c-7.79,10.63-10,22.05-4.42,34.09s15.6,17.95,29,18.75Z" transform="translate(0.34 0.13)"/><path class="cls-1" d="M135.4,34.94c-4.72,3.4-10.1,3.87-15.66,3.23A18,18,0,0,1,110,34a13.78,13.78,0,0,1-1-20.12c6.76-7.06,22.38-8,30,1.42l-4.29,2.14c-5-4.86-10.86-5.81-17.22-3.71s-9.07,8.26-6.57,13.83a10.66,10.66,0,0,0,7.58,6,18.25,18.25,0,0,0,10.33-.22,10.29,10.29,0,0,0,6.65-6.49h-13V22.72h18.94A13.8,13.8,0,0,1,135.4,34.94Z" transform="translate(0.34 0.13)"/><path class="cls-1" d="M149.35,33.39c-.36-.28-.67-.63-1.18-1.12l3.63-2.48c4.45,3.71,9.54,4.67,15,3.83a10.36,10.36,0,0,0,3.76-1.39c3.15-1.94,3-5.56-.17-7.39-3-1.71-6.3-1.79-9.57-1.38a31.12,31.12,0,0,0-6.58,1.78,2.77,2.77,0,0,1-2.85-.14c-.77-.53-1.63-.93-2.58-1.46.73-2.38,1.45-4.75,2.18-7.11s1.48-4.76,2.24-7.18h22.18v4.21h-9c-3,0-5.93,0-8.9,0a1.77,1.77,0,0,0-1.37.79c-.85,2.16-1.55,4.37-2.31,6.57,2.51-.52,4.9-1.22,7.34-1.48,4.36-.47,8.66-.06,12.51,2.32a7.77,7.77,0,0,1,.87,13,9.53,9.53,0,0,1-2.92,1.76C163.72,39.21,156.2,38.54,149.35,33.39Z" transform="translate(0.34 0.13)"/><path class="cls-1" d="M282.8,4a3.06,3.06,0,0,1-1.66.2H198.06c.79,2.1,1.52,4.07,2.32,6,.09.23.54.4.85.45a8.17,8.17,0,0,0,1.4,0h71.71c-2.15,1.75-3.5,4.32-7,4.29-21.4-.14-42.81-.07-64.21-.07h-1.62c.16,2.21.31,4.26.48,6.48h59.46l.15.34c-1.54,1.26-3,2.57-4.63,3.76a3.07,3.07,0,0,1-1.66.2q-26,0-52,0c-1.37,0-1.92.34-2.05,1.75a34.34,34.34,0,0,1-.94,4.23h48.83c-2.2,2-3.76,4.42-7.37,4.36C228,35.82,214.27,36,200.52,36c-.61,0-1.22-.08-1.76-.12l-3.85,6.55h41.4l.15.33c-1.53,1.27-3,2.59-4.61,3.78a2.94,2.94,0,0,1-1.65.24q-18.82,0-37.65,0a3.75,3.75,0,0,0-2.77,1A35.82,35.82,0,0,1,167,57h-1.31V52.84c13.22-.75,23.26-6.61,28.9-18.63s3.51-23.49-4.39-34.2h97.59C285.92,1.51,284.41,2.83,282.8,4Z" transform="translate(0.34 0.13)"/></svg>